<?xml version="1.0" encoding="utf-8"?>
<!-- Generator: Adobe Illustrator 18.0.0, SVG Export Plug-In . SVG Version: 6.00 Build 0)  -->
<!DOCTYPE svg PUBLIC "-//W3C//DTD SVG 1.1//EN" "http://www.w3.org/Graphics/SVG/1.1/DTD/svg11.dtd">
<svg version="1.1" id="Layer_1" xmlns="http://www.w3.org/2000/svg" xmlns:xlink="http://www.w3.org/1999/xlink" x="0px" y="0px"
	 viewBox="-0.4 87 612 605.5" enable-background="new -0.4 87 612 605.5" xml:space="preserve">
<path fill="#15AABD" d="M-0.4,87h612v605.5h-612V87z"/>
<path fill="none" stroke="#FFFFFF" stroke-width="30" stroke-linejoin="round" stroke-miterlimit="10" d="M405.2,439.8l-100,57.7
	l-100-57.7V324.2l100-57.8l100,57.8V439.8z"/>
<path fill="none" stroke="#FFFFFF" stroke-width="30" stroke-miterlimit="10" d="M305.2,266.5V164.8 M405.2,382h78.1"/>
<path fill="none" stroke="#FFFFFF" stroke-width="30" stroke-linecap="round" stroke-miterlimit="10" d="M466.8,240.4
	c30.4,36.5,48.7,83.3,48.7,134.5c0,116.1-94.1,210.2-210.2,210.2S95,491,95,374.8s94.1-210.2,210.2-210.2c27.4,0,53.5,5.2,77.4,14.8
	"/>
<circle fill="#15AABD" stroke="#FFFFFF" stroke-width="20" stroke-miterlimit="10" cx="205.2" cy="559" r="40.1"/>
<circle fill="#15AABD" stroke="#FFFFFF" stroke-width="20" stroke-miterlimit="10" cx="515.4" cy="382" r="38.5"/>
</svg>
