<?xml version="1.0" encoding="UTF-8" standalone="no"?>
<svg
   xmlns:dc="http://purl.org/dc/elements/1.1/"
   xmlns:cc="http://creativecommons.org/ns#"
   xmlns:rdf="http://www.w3.org/1999/02/22-rdf-syntax-ns#"
   xmlns:svg="http://www.w3.org/2000/svg"
   xmlns="http://www.w3.org/2000/svg"
   viewBox="0 0 256.42932 241.52399"
   height="241.52399"
   width="256.42932"
   xml:space="preserve"
   id="svg2"
   version="1.1"><metadata
     id="metadata8"><rdf:RDF><cc:Work
         rdf:about=""><dc:format>image/svg+xml</dc:format><dc:type
           rdf:resource="http://purl.org/dc/dcmitype/StillImage" /><dc:title></dc:title></cc:Work></rdf:RDF></metadata><defs
     id="defs6" /><g
     transform="matrix(1.3333333,0,0,-1.3333333,-135.54133,505.62265)"
     id="g10"><g
       transform="translate(138.2754,306.2061)"
       id="g12"><path
         id="path14"
         style="fill:#be6c06;fill-opacity:1;fill-rule:nonzero;stroke:none"
         d="m 0,0 h 71.858 v 11.961 l 12.324,0.004 V 35.563 H 71.855 L 71.87,60.684 H 83.412 V 48.709 h 22.977 v 11.975 h 12.326 V 37.086 h 12.326 V 24.759 l 12.335,-0.008 V 12.424 H 132.1 V 0.456 l -22.731,0.006 v -11.975 l -12.33,-0.005 0.008,-12.318 H 84.721 L 84.713,-71.045 H 72.395 v 11.284 H 60.067 l -0.011,11.973 H 23.779 v -11.975 l -11.088,0.004 v -12.312 h -24.664 v 11.826 h 12.33 v 12.327 H -11.97 v 35.572 H 0 Z" /></g><path
       id="path16"
       style="fill:#000000;fill-opacity:1;fill-rule:nonzero;stroke:none"
       d="m 210.134,306.192 h -96.15 v 11.975 h 96.15 z" /><path
       id="path18"
       style="fill:#000000;fill-opacity:1;fill-rule:nonzero;stroke:none"
       d="m 198.331,246.443 h -36.277 v 11.975 h 36.277 z" /><path
       id="path20"
       style="fill:#000000;fill-opacity:1;fill-rule:nonzero;stroke:none"
       d="m 234.446,366.89 h -24.301 v 12.327 h 24.301 z" /><path
       id="path22"
       style="fill:#000000;fill-opacity:1;fill-rule:nonzero;stroke:none"
       d="m 244.664,354.916 h -22.977 v 11.975 h 22.977 z" /><path
       id="path24"
       style="fill:#000000;fill-opacity:1;fill-rule:nonzero;stroke:none"
       d="m 283.922,294.693 h -36.277 v 11.975 h 36.277 z" /><path
       id="path26"
       style="fill:#000000;fill-opacity:1;fill-rule:nonzero;stroke:none"
       d="m 293.973,306.662 h -23.598 v 11.975 h 23.598 z" /><path
       id="path28"
       style="fill:#000000;fill-opacity:1;fill-rule:nonzero;stroke:none"
       d="m 113.983,293.865 h -12.327 v 12.327 h 12.327 z" /><path
       id="path30"
       style="fill:#000000;fill-opacity:1;fill-rule:nonzero;stroke:none"
       d="m 138.632,245.961 h -12.327 v 12.327 h 12.327 z" /><path
       id="path32"
       style="fill:#000000;fill-opacity:1;fill-rule:nonzero;stroke:none"
       d="m 162.059,234.12 h -11.092 v 12.327 h 11.092 z" /><path
       id="path34"
       style="fill:#000000;fill-opacity:1;fill-rule:nonzero;stroke:none"
       d="m 247.641,282.361 h -12.326 v 12.327 h 12.326 z" /><path
       id="path36"
       style="fill:#000000;fill-opacity:1;fill-rule:nonzero;stroke:none"
       d="m 293.978,318.63 h -12.326 v 12.327 h 12.326 z" /><path
       id="path38"
       style="fill:#000000;fill-opacity:1;fill-rule:nonzero;stroke:none"
       d="m 281.643,330.965 h -12.326 v 12.327 h 12.326 z" /><path
       id="path40"
       style="fill:#000000;fill-opacity:1;fill-rule:nonzero;stroke:none"
       d="M 269.316,343.292 H 256.99 v 23.598 h 12.326 z" /><path
       id="path42"
       style="fill:#000000;fill-opacity:1;fill-rule:nonzero;stroke:none"
       d="m 222.457,318.171 h -12.326 v 23.598 h 12.326 z" /><path
       id="path44"
       style="fill:#000000;fill-opacity:1;fill-rule:nonzero;stroke:none"
       d="M 210.146,341.777 H 197.82 v 25.113 h 12.326 z" /><path
       id="path46"
       style="fill:#000000;fill-opacity:1;fill-rule:nonzero;stroke:none"
       d="m 256.99,366.89 h -12.326 v 12.327 h 12.326 z" /><path
       id="path48"
       style="fill:#000000;fill-opacity:1;fill-rule:nonzero;stroke:none"
       d="m 244.664,329.441 h -12.326 v 12.327 h 12.326 z" /><path
       id="path50"
       style="fill:#000000;fill-opacity:1;fill-rule:nonzero;stroke:none"
       d="M 222.987,198.54 H 210.66 v 12.327 h 12.327 z" /><path
       id="path52"
       style="fill:#000000;fill-opacity:1;fill-rule:nonzero;stroke:none"
       d="m 138.629,198.074 h -12.327 v 12.327 h 12.327 z" /><path
       id="path54"
       style="fill:#000000;fill-opacity:1;fill-rule:nonzero;stroke:none"
       d="m 126.299,258.288 h -12.327 v 35.572 h 12.327 z" /><path
       id="path56"
       style="fill:#000000;fill-opacity:1;fill-rule:nonzero;stroke:none"
       d="m 126.299,210.404 h -12.327 v 35.572 h 12.327 z" /><path
       id="path58"
       style="fill:#000000;fill-opacity:1;fill-rule:nonzero;stroke:none"
       d="m 235.322,210.873 h -12.326 v 71.497 h 12.326 z" /><path
       id="path60"
       style="fill:#000000;fill-opacity:1;fill-rule:nonzero;stroke:none"
       d="m 210.67,210.873 h -12.327 v 35.572 h 12.327 z" /><path
       id="path62"
       style="fill:#000000;fill-opacity:1;fill-rule:nonzero;stroke:none"
       d="m 150.958,210.404 h -12.327 v 23.73 h 12.327 z" /><path
       id="path64"
       style="fill:#ffbe6c;fill-opacity:1;fill-rule:nonzero;stroke:none"
       d="m 138.275,293.872 h -24.301 v 12.334 h 24.301 z" /><path
       id="path66"
       style="fill:#ffbe6c;fill-opacity:1;fill-rule:nonzero;stroke:none"
       d="m 138.625,210.401 h -12.322 v 23.729 h 12.322 z" /><path
       id="path68"
       style="fill:#ffbe6c;fill-opacity:1;fill-rule:nonzero;stroke:none"
       d="M 222.988,210.86 H 210.67 v 24.301 h 12.318 z" /></g></svg>